<svg width="1000" height="403" viewBox="0 0 1000 403" fill="none" xmlns="http://www.w3.org/2000/svg">
<g clip-path="url(#clip0_296_101)">
<path d="M846.3 93.8001V32.2001H674.8L646.6 238L618.7 32.2001H556.9L563.8 87.1001C556.7 73.0001 531.4 32.2001 475.7 32.2001C475.3 32.2001 413.8 32.2001 413.8 32.2001L413.6 332.2L368.5 32.2001H287.5L240.9 343V32.2001H163.4L135.5 206.8L108.3 32.2001H30.7998V370.1H91.7998V207.2L119.6 370.1H152L179.4 207.2V370.1H297.1L304.2 318.1H351.6L358.7 370.1L474.2 370.2H474.3V370.1H474.4H474.5V260.4L488.7 258.3L518 370.2H518.1H577.7H577.8V370.1H577.9H578L539.4 239C558.9 224.6 580.9 188 575.1 152.9C575.2 153.4 611.4 370.3 611.4 370.3L682.5 370.1L731 63.8001V370.1H846.2V309.3H791.5V231.8H846.2V170.1H791.5V93.8001H846.3ZM311.5 264.5L328.3 120L345.7 264.5H311.5ZM488.9 197.8C484.2 200.1 479.3 201.2 474.5 201.2V92.5001C474.6 92.5001 474.7 92.5001 474.8 92.5001C479.6 92.5001 515.2 93.9001 515.2 146.3C515.2 173.7 503.1 190.9 488.9 197.8ZM969.2 309.3V370H856.8V32.1001H917.3V309.2H969.2V309.3Z" fill="white"/>
</g>
<defs>
<clipPath id="clip0_296_101">
<rect width="1000" height="402.5" fill="white"/>
</clipPath>
</defs>
</svg>
